<?xml version="1.0" encoding="UTF-8" standalone="no"?>
<svg viewBox="0 0 494.99686 318.31985" xmlns="http://www.w3.org/2000/svg" xmlns:xlink="http://www.w3.org/1999/xlink">
<defs>
<clipPath id="clipPath3178">
<path d="m.5644,0h494.9969v318.3332h-494.9969z"/>
</clipPath>
<linearGradient id="linearGradient2395">
<stop offset="0"/>
<stop offset="1" stop-opacity=".271"/>
</linearGradient>
<linearGradient id="linearGradient2391">
<stop offset="0"/>
<stop offset="1" stop-opacity=".313"/>
</linearGradient>
<linearGradient gradientUnits="userSpaceOnUse" id="linearGradient3182" x2="0" y1="9.3045" y2="172.8405">
<stop offset="0" stop-color="#00008d"/>
<stop offset="1" stop-color="#7d7dff"/>
</linearGradient>
<linearGradient gradientUnits="userSpaceOnUse" id="linearGradient3188" x2="0" y1="294.9542" y2="108.8277">
<stop offset="0" stop-color="#009500"/>
<stop offset="1" stop-color="#003d00"/>
</linearGradient>
<radialGradient cx="213.1685" cy="389.6022" gradientUnits="userSpaceOnUse" id="radialGradient3184" r="137.7846">
<stop offset="0" stop-color="#f50"/>
<stop offset=".881" stop-color="#f50"/>
<stop offset="1" stop-color="#ff559d" stop-opacity="0"/>
</radialGradient>
<radialGradient cx="-24.4107" cy="232.1131" gradientTransform="scale(1.186,.843)" gradientUnits="userSpaceOnUse" id="radialGradient3186" r="65.5972">
<stop offset="0" stop-color="#ffa200"/>
<stop offset="1" stop-color="#f50"/>
</radialGradient>
<radialGradient cx="275.847" cy="168.96" gradientUnits="userSpaceOnUse" id="radialGradient3190" r="42.2655">
<stop offset="0" stop-color="#fff"/>
<stop offset="1"/>
</radialGradient>
<radialGradient cx="144.8021" cy="486.4704" gradientTransform="matrix(1.86009,0,0,.53761,2.163996e-4,-.00443)" gradientUnits="userSpaceOnUse" id="radialGradient3192" r="52.9543" xlink:href="#linearGradient2391"/>
<radialGradient cx="144.8021" cy="486.4704" gradientTransform="matrix(1.86009,0,0,.53761,2.163996e-4,-.00443)" gradientUnits="userSpaceOnUse" id="radialGradient3194" r="52.9543" xlink:href="#linearGradient2395"/>
<radialGradient cx="144.8021" cy="486.4704" gradientTransform="matrix(5.36778,0,0,1.55142,-779.3594,-534.2494)" gradientUnits="userSpaceOnUse" id="radialGradient3222" r="52.9543" xlink:href="#linearGradient2391"/>
<radialGradient cx="144.8021" cy="486.4704" gradientTransform="matrix(5.36778,0,0,1.55142,-779.3594,-534.2494)" gradientUnits="userSpaceOnUse" id="radialGradient3224" r="52.9543" xlink:href="#linearGradient2395"/>
</defs>
<g transform="translate(-.5644,-.0134)">
<g clip-path="url(#clipPath3178)">
<path d="m.0106.0134h496.063v133.792h-496.063z" fill="url(#linearGradient3182)"/>
<path d="m89.2388,449.7781c-33.2342-68.4444-4.6906-150.8712 63.7538-184.1053s150.8712-4.6906 184.1053,63.7538 4.6906,150.8712-63.7538,184.1053c-68.4318,33.228-150.8438,4.7016-184.0896-63.7215" fill="url(#radialGradient3184)" fill-rule="evenodd" transform="matrix(.55837,0,0,.55837,184.3571,-113.672)"/>
<path d="m-141.9262,285.6766c-20.902-47.465.6315-102.8875 48.0965-123.7896 47.465-20.9021 102.8875.6315 123.7896,48.0965 10.9256,24.8103 10.5963,53.1317-.9033,77.6813" fill="url(#radialGradient3186)" transform="matrix(.72596,0,0,.72596,343.9145,-76.3431)"/>
<path d="m.0106,130.9417h496.063v187.9693h-496.063z" fill="url(#linearGradient3188)" fill-rule="evenodd"/>
<g transform="matrix(.8309,0,0,.8309,-27.6693,-153.4729)">
<path d="m208.0575,455.6537 60.2023-197.8585 60.3927,197.5545-100.4184-62.6282 65.1234-49.6219-40.7639-30.6734" fill="none" stroke="#000" stroke-linecap="round" stroke-linejoin="round" stroke-width="3.75"/>
<path d="m327.6406,458.2349-215.3243,197.8585 94.491-197.5545 51.3176,62.6282-104.0272,49.6219 16.7158,30.6734" fill="none" stroke="#000" stroke-linecap="round" stroke-linejoin="round" stroke-opacity=".059" stroke-width="3.75"/>
<g transform="translate(-.9895,-5)">
<path d="m291.7126,199.2215c-6.5663,13.9955-23.235,20.0181-37.2305,13.4518s-20.0181-23.235-13.4518-37.2305 23.235-20.0181 37.2305-13.4518c13.9894,6.5635 20.0139,23.2215 13.459,37.2149" fill="url(#radialGradient3190)" fill-rule="evenodd" transform="matrix(.30655,0,0,.30655,187.6874,204.0996)"/>
<path d="m350.0315,234.9331c10.7837,15.9952 12.1763,34.8973 1.0938,52.2188 1.9377-1.5868 4.0839-3.0524 5.6875-4.7813l.125-.0625c14.7238-15.8988 10.7566-33.6641-6.9063-47.375zm-162.4375.9688c-1.9872,1.6182-4.1738,3.1396-5.8125,4.9063-14.7027,15.8507-10.8331,33.6112 6.6875,47.3125-10.7333-16.0002-11.9907-34.9153-.875-52.2188zm131.0313,5.375c6.5857,12.1709 7.4245,26.57.6563,39.75 1.1834-1.2074 2.5206-2.3408 3.5-3.6563l.0625-.0312c8.992-12.0975 6.5681-25.6298-4.2188-36.0625zm-99.2188.75c-1.2136,1.2313-2.5305,2.3745-3.5313,3.7188-8.9791,12.0609-6.6063,25.6058 4.0938,36.0313-6.5549-12.1747-7.351-26.5836-.5625-39.75zm75.5625,5.0938c3.425,8.6617 3.8637,18.9014.3438,28.2813 .6154-.8593 1.3032-1.6576 1.8125-2.5938l.0312-.0312c4.6764-8.6095 3.4223-18.2316-2.1875-25.6563zm-51.5938.5313c-.6311.8763-1.3233,1.6996-1.8438,2.6563-4.6697,8.5834-3.4397,18.2055 2.125,25.625-3.409-8.6644-3.8117-18.9111-.2813-28.2813z" fill="url(#radialGradient3192)" fill-rule="evenodd" stroke="url(#radialGradient3194)" stroke-linecap="round" stroke-linejoin="round" stroke-opacity=".355" stroke-width="3.75"/>
</g>
</g>
<g transform="matrix(-.41354,0,0,.41354,526.1449,-31.7052)">
<path d="m208.0575,455.6537 60.2023-197.8585 60.3927,197.5545-100.4184-62.6282 65.1234-49.6219-40.7639-30.6734" fill="none" stroke="#000" stroke-linecap="round" stroke-linejoin="round" stroke-width="3.75"/>
<path d="m327.6406,458.2349-215.3243,197.8585 94.491-197.5545 51.3176,62.6282-104.0272,49.6219 16.7158,30.6734" fill="none" stroke="#000" stroke-linecap="round" stroke-linejoin="round" stroke-opacity=".059" stroke-width="3.75"/>
<g transform="translate(-.9895,-5)">
<path d="m291.7126,199.2215c-6.5663,13.9955-23.235,20.0181-37.2305,13.4518s-20.0181-23.235-13.4518-37.2305 23.235-20.0181 37.2305-13.4518c13.9894,6.5635 20.0139,23.2215 13.459,37.2149" fill="url(#radialGradient3190)" fill-rule="evenodd" transform="matrix(.30655,0,0,.30655,187.6874,204.0996)"/>
<path d="m350.0315,234.9331c10.7837,15.9952 12.1763,34.8973 1.0938,52.2188 1.9377-1.5868 4.0839-3.0524 5.6875-4.7813l.125-.0625c14.7238-15.8988 10.7566-33.6641-6.9063-47.375zm-162.4375.9688c-1.9872,1.6182-4.1738,3.1396-5.8125,4.9063-14.7027,15.8507-10.8331,33.6112 6.6875,47.3125-10.7333-16.0002-11.9907-34.9153-.875-52.2188zm131.0313,5.375c6.5857,12.1709 7.4245,26.57.6563,39.75 1.1834-1.2074 2.5206-2.3408 3.5-3.6563l.0625-.0312c8.992-12.0975 6.5681-25.6298-4.2188-36.0625zm-99.2188.75c-1.2136,1.2313-2.5305,2.3745-3.5313,3.7188-8.9791,12.0609-6.6063,25.6058 4.0938,36.0313-6.5549-12.1747-7.351-26.5836-.5625-39.75zm75.5625,5.0938c3.425,8.6617 3.8637,18.9014.3438,28.2813 .6154-.8593 1.3032-1.6576 1.8125-2.5938l.0312-.0312c4.6764-8.6095 3.4223-18.2316-2.1875-25.6563zm-51.5938.5313c-.6311.8763-1.3233,1.6996-1.8438,2.6563-4.6697,8.5834-3.4397,18.2055 2.125,25.625-3.409-8.6644-3.8117-18.9111-.2813-28.2813z" fill="url(#radialGradient3192)" fill-rule="evenodd" stroke="url(#radialGradient3194)" stroke-linecap="round" stroke-linejoin="round" stroke-opacity=".355" stroke-width="3.75"/>
</g>
</g>
<g transform="matrix(.22969,0,0,.22969,213.0222,53.3543)">
<path d="m208.0575,455.6537 60.2023-197.8585 60.3927,197.5545-100.4184-62.6282 65.1234-49.6219-40.7639-30.6734" fill="none" stroke="#000" stroke-linecap="round" stroke-linejoin="round" stroke-width="3.75"/>
<path d="m327.6406,458.2349-215.3243,197.8585 94.491-197.5545 51.3176,62.6282-104.0272,49.6219 16.7158,30.6734" fill="none" stroke="#000" stroke-linecap="round" stroke-linejoin="round" stroke-opacity=".059" stroke-width="3.75"/>
<g transform="translate(-.9895,-5)">
<path d="m291.7126,199.2215c-6.5663,13.9955-23.235,20.0181-37.2305,13.4518s-20.0181-23.235-13.4518-37.2305 23.235-20.0181 37.2305-13.4518c13.9894,6.5635 20.0139,23.2215 13.459,37.2149" fill="url(#radialGradient3190)" fill-rule="evenodd" transform="matrix(.30655,0,0,.30655,187.6874,204.0996)"/>
<path d="m350.0315,234.9331c10.7837,15.9952 12.1763,34.8973 1.0938,52.2188 1.9377-1.5868 4.0839-3.0524 5.6875-4.7813l.125-.0625c14.7238-15.8988 10.7566-33.6641-6.9063-47.375zm-162.4375.9688c-1.9872,1.6182-4.1738,3.1396-5.8125,4.9063-14.7027,15.8507-10.8331,33.6112 6.6875,47.3125-10.7333-16.0002-11.9907-34.9153-.875-52.2188zm131.0313,5.375c6.5857,12.1709 7.4245,26.57.6563,39.75 1.1834-1.2074 2.5206-2.3408 3.5-3.6563l.0625-.0312c8.992-12.0975 6.5681-25.6298-4.2188-36.0625zm-99.2188.75c-1.2136,1.2313-2.5305,2.3745-3.5313,3.7188-8.9791,12.0609-6.6063,25.6058 4.0938,36.0313-6.5549-12.1747-7.351-26.5836-.5625-39.75zm75.5625,5.0938c3.425,8.6617 3.8637,18.9014.3438,28.2813 .6154-.8593 1.3032-1.6576 1.8125-2.5938l.0312-.0312c4.6764-8.6095 3.4223-18.2316-2.1875-25.6563zm-51.5938.5313c-.6311.8763-1.3233,1.6996-1.8438,2.6563-4.6697,8.5834-3.4397,18.2055 2.125,25.625-3.409-8.6644-3.8117-18.9111-.2813-28.2813z" fill="url(#radialGradient3192)" fill-rule="evenodd" stroke="url(#radialGradient3194)" stroke-linecap="round" stroke-linejoin="round" stroke-opacity=".355" stroke-width="3.75"/>
</g>
</g>
<g transform="matrix(.39186,0,0,.39186,-29.34381,8.7188)">
<path d="m208.0575,455.6537 60.2023-197.8585 60.3927,197.5545-100.4184-62.6282 65.1234-49.6219-40.7639-30.6734" fill="none" stroke="#000" stroke-linecap="round" stroke-linejoin="round" stroke-width="3.75"/>
<path d="m327.6406,458.2349-215.3243,197.8585 94.491-197.5545 51.3176,62.6282-104.0272,49.6219 16.7158,30.6734" fill="none" stroke="#000" stroke-linecap="round" stroke-linejoin="round" stroke-opacity=".059" stroke-width="3.75"/>
<g transform="translate(-.9895,-5)">
<path d="m291.7126,199.2215c-6.5663,13.9955-23.235,20.0181-37.2305,13.4518s-20.0181-23.235-13.4518-37.2305 23.235-20.0181 37.2305-13.4518c13.9894,6.5635 20.0139,23.2215 13.459,37.2149" fill="url(#radialGradient3190)" fill-rule="evenodd" transform="matrix(.30655,0,0,.30655,187.6874,204.0996)"/>
<path d="m350.0315,234.9331c10.7837,15.9952 12.1763,34.8973 1.0938,52.2188 1.9377-1.5868 4.0839-3.0524 5.6875-4.7813l.125-.0625c14.7238-15.8988 10.7566-33.6641-6.9063-47.375zm-162.4375.9688c-1.9872,1.6182-4.1738,3.1396-5.8125,4.9063-14.7027,15.8507-10.8331,33.6112 6.6875,47.3125-10.7333-16.0002-11.9907-34.9153-.875-52.2188zm131.0313,5.375c6.5857,12.1709 7.4245,26.57.6563,39.75 1.1834-1.2074 2.5206-2.3408 3.5-3.6563l.0625-.0312c8.992-12.0975 6.5681-25.6298-4.2188-36.0625zm-99.2188.75c-1.2136,1.2313-2.5305,2.3745-3.5313,3.7188-8.9791,12.0609-6.6063,25.6058 4.0938,36.0313-6.5549-12.1747-7.351-26.5836-.5625-39.75zm75.5625,5.0938c3.425,8.6617 3.8637,18.9014.3438,28.2813 .6154-.8593 1.3032-1.6576 1.8125-2.5938l.0312-.0312c4.6764-8.6095 3.4223-18.2316-2.1875-25.6563zm-51.5938.5313c-.6311.8763-1.3233,1.6996-1.8438,2.6563-4.6697,8.5834-3.4397,18.2055 2.125,25.625-3.409-8.6644-3.8117-18.9111-.2813-28.2813z" fill="url(#radialGradient3192)" fill-rule="evenodd" stroke="url(#radialGradient3194)" stroke-linecap="round" stroke-linejoin="round" stroke-opacity=".355" stroke-width="3.75"/>
</g>
</g>
<g transform="matrix(-.41354,0,0,.41354,454.7271,59.2675)">
<path d="m208.0575,455.6537 60.2023-197.8585 60.3927,197.5545-100.4184-62.6282 65.1234-49.6219-40.7639-30.6734" fill="none" stroke="#000" stroke-linecap="round" stroke-linejoin="round" stroke-width="3.75"/>
<path d="m327.6406,458.2349-215.3243,197.8585 94.491-197.5545 51.3176,62.6282-104.0272,49.6219 16.7158,30.6734" fill="none" stroke="#000" stroke-linecap="round" stroke-linejoin="round" stroke-opacity=".059" stroke-width="3.75"/>
<g transform="translate(-.9895,-5)">
<path d="m291.7126,199.2215c-6.5663,13.9955-23.235,20.0181-37.2305,13.4518s-20.0181-23.235-13.4518-37.2305 23.235-20.0181 37.2305-13.4518c13.9894,6.5635 20.0139,23.2215 13.459,37.2149" fill="url(#radialGradient3190)" fill-rule="evenodd" transform="matrix(.30655,0,0,.30655,187.6874,204.0996)"/>
<path d="m350.0315,234.9331c10.7837,15.9952 12.1763,34.8973 1.0938,52.2188 1.9377-1.5868 4.0839-3.0524 5.6875-4.7813l.125-.0625c14.7238-15.8988 10.7566-33.6641-6.9063-47.375zm-162.4375.9688c-1.9872,1.6182-4.1738,3.1396-5.8125,4.9063-14.7027,15.8507-10.8331,33.6112 6.6875,47.3125-10.7333-16.0002-11.9907-34.9153-.875-52.2188zm131.0313,5.375c6.5857,12.1709 7.4245,26.57.6563,39.75 1.1834-1.2074 2.5206-2.3408 3.5-3.6563l.0625-.0312c8.992-12.0975 6.5681-25.6298-4.2188-36.0625zm-99.2188.75c-1.2136,1.2313-2.5305,2.3745-3.5313,3.7188-8.9791,12.0609-6.6063,25.6058 4.0938,36.0313-6.5549-12.1747-7.351-26.5836-.5625-39.75zm75.5625,5.0938c3.425,8.6617 3.8637,18.9014.3438,28.2813 .6154-.8593 1.3032-1.6576 1.8125-2.5938l.0312-.0312c4.6764-8.6095 3.4223-18.2316-2.1875-25.6563zm-51.5938.5313c-.6311.8763-1.3233,1.6996-1.8438,2.6563-4.6697,8.5834-3.4397,18.2055 2.125,25.625-3.409-8.6644-3.8117-18.9111-.2813-28.2813z" fill="url(#radialGradient3192)" fill-rule="evenodd" stroke="url(#radialGradient3194)" stroke-linecap="round" stroke-linejoin="round" stroke-opacity=".355" stroke-width="3.75"/>
</g>
</g>
<path d="m-2.3686,224.1297 34.3435,113.1638" fill="none" stroke="#000" stroke-linecap="round" stroke-linejoin="round" stroke-width="10.8216"/>
<path d="m291.7126,199.2215c-6.5663,13.9955-23.235,20.0181-37.2305,13.4518s-20.0181-23.235-13.4518-37.2305 23.235-20.0181 37.2305-13.4518c13.9894,6.5635 20.0139,23.2215 13.459,37.2149" fill="url(#radialGradient3190)" fill-rule="evenodd" transform="matrix(.88464,0,0,.88464,-237.7373,54.7479)"/>
<path d="m230.7503,143.7262c31.1193,46.1585 35.1381,100.7056 3.1563,150.6913 5.5918-4.579 11.7851-8.8086 16.4128-13.7976l.3607-.1804c42.4895-45.8801 31.0409-97.1469-19.9298-136.7133zm-468.7573,2.7956c-5.7345,4.6698-12.0447,9.0602-16.7735,14.1583-42.4285,45.7413-31.2618,96.9942 19.2986,136.533-30.9739-46.173-34.6025-100.7575-2.525-150.6913zm378.1261,15.511c19.0048,35.1224 21.4254,76.6749 1.8938,114.7094 3.415-3.4842 7.274-6.7549 10.1002-10.5511l.1804-.0902c25.9487-34.9106 18.954-73.9617-12.1743-104.0681zm-286.3225,2.1643c-3.5021,3.5533-7.3024,6.8522-10.1904,10.7315-25.9115,34.805-19.0641,73.8925 11.8136,103.9779-18.916-35.1334-21.2132-76.7143-1.6232-114.7094zm218.056,14.6994c9.8837,24.9956 11.1496,54.545.992,81.6132 1.776-2.4797 3.7606-4.7833 5.2305-7.485l.0902-.0902c13.495-24.845 9.8761-52.6121-6.3126-74.038zm-148.8877,1.5331c-1.8213,2.5288-3.8187,4.9046-5.3206,7.6653-13.4756,24.7697-9.9261,52.5369 6.1323,73.9479-9.8375-25.0035-10.9997-54.5731-.8116-81.6132z" fill="url(#radialGradient3222)" fill-rule="evenodd" opacity=".379" stroke="url(#radialGradient3224)" stroke-linecap="round" stroke-linejoin="round" stroke-opacity=".355" stroke-width="10.8216"/>
<g transform="matrix(.07523,0,0,.07523,124.4673,96.7522)">
<path d="m208.0575,455.6537 60.2023-197.8585 60.3927,197.5545-100.4184-62.6282 65.1234-49.6219-40.7639-30.6734" fill="none" stroke="#000" stroke-linecap="round" stroke-linejoin="round" stroke-width="3.75"/>
<path d="m327.6406,458.2349-215.3243,197.8585 94.491-197.5545 51.3176,62.6282-104.0272,49.6219 16.7158,30.6734" fill="none" stroke="#000" stroke-linecap="round" stroke-linejoin="round" stroke-opacity=".059" stroke-width="3.75"/>
<g transform="translate(-.9895,-5)">
<path d="m291.7126,199.2215c-6.5663,13.9955-23.235,20.0181-37.2305,13.4518s-20.0181-23.235-13.4518-37.2305 23.235-20.0181 37.2305-13.4518c13.9894,6.5635 20.0139,23.2215 13.459,37.2149" fill="url(#radialGradient3190)" fill-rule="evenodd" transform="matrix(.30655,0,0,.30655,187.6874,204.0996)"/>
<path d="m350.0315,234.9331c10.7837,15.9952 12.1763,34.8973 1.0938,52.2188 1.9377-1.5868 4.0839-3.0524 5.6875-4.7813l.125-.0625c14.7238-15.8988 10.7566-33.6641-6.9063-47.375zm-162.4375.9688c-1.9872,1.6182-4.1738,3.1396-5.8125,4.9063-14.7027,15.8507-10.8331,33.6112 6.6875,47.3125-10.7333-16.0002-11.9907-34.9153-.875-52.2188zm131.0313,5.375c6.5857,12.1709 7.4245,26.57.6563,39.75 1.1834-1.2074 2.5206-2.3408 3.5-3.6563l.0625-.0312c8.992-12.0975 6.5681-25.6298-4.2188-36.0625zm-99.2188.75c-1.2136,1.2313-2.5305,2.3745-3.5313,3.7188-8.9791,12.0609-6.6063,25.6058 4.0938,36.0313-6.5549-12.1747-7.351-26.5836-.5625-39.75zm75.5625,5.0938c3.425,8.6617 3.8637,18.9014.3438,28.2813 .6154-.8593 1.3032-1.6576 1.8125-2.5938l.0312-.0312c4.6764-8.6095 3.4223-18.2316-2.1875-25.6563zm-51.5938.5313c-.6311.8763-1.3233,1.6996-1.8438,2.6563-4.6697,8.5834-3.4397,18.2055 2.125,25.625-3.409-8.6644-3.8117-18.9111-.2813-28.2813z" fill="url(#radialGradient3192)" fill-rule="evenodd" stroke="url(#radialGradient3194)" stroke-linecap="round" stroke-linejoin="round" stroke-opacity=".355" stroke-width="3.75"/>
</g>
</g>
</g>
</g>
</svg>
